<mxfile host="app.diagrams.net" modified="2020-04-25T11:40:11.154Z" agent="5.0 (Windows NT 10.0; Win64; x64) AppleWebKit/537.36 (KHTML, like Gecko) Chrome/81.0.4044.122 Safari/537.36" etag="aod65v26sV-OEG4vROFW" version="13.0.1" type="github">
  <diagram id="WXekA-x_xKKdpQk5buRY" name="Page-1">
    <mxGraphModel dx="4740" dy="2540" grid="1" gridSize="10" guides="1" tooltips="1" connect="1" arrows="1" fold="1" page="1" pageScale="1" pageWidth="827" pageHeight="1169" math="0" shadow="0">
      <root>
        <mxCell id="0" />
        <mxCell id="1" parent="0" />
        <mxCell id="t_3xAI16Gsf8tu39YJwn-109" value="&lt;b&gt;&lt;font color=&quot;#ff0000&quot; style=&quot;font-size: 14px&quot;&gt;Boundary Blockchain&lt;/font&gt;&lt;/b&gt;" style="ellipse;whiteSpace=wrap;html=1;aspect=fixed;dashed=1;fillColor=none;align=center;verticalAlign=top;" parent="1" vertex="1">
          <mxGeometry x="140" y="220" width="1260" height="1260" as="geometry" />
        </mxCell>
        <mxCell id="t_3xAI16Gsf8tu39YJwn-1" value="" style="endArrow=none;html=1;entryX=0.5;entryY=1;entryDx=0;entryDy=0;exitX=0.5;exitY=0;exitDx=0;exitDy=0;horizontal=1;fontStyle=1;labelPosition=center;verticalLabelPosition=middle;align=center;verticalAlign=middle;anchorPointDirection=1;" parent="1" source="t_3xAI16Gsf8tu39YJwn-67" target="t_3xAI16Gsf8tu39YJwn-53" edge="1">
          <mxGeometry x="-0.6182" y="12" width="50" height="50" relative="1" as="geometry">
            <mxPoint x="845" y="990" as="sourcePoint" />
            <mxPoint x="895" y="940" as="targetPoint" />
            <mxPoint as="offset" />
          </mxGeometry>
        </mxCell>
        <mxCell id="t_3xAI16Gsf8tu39YJwn-4" value="&lt;b style=&quot;font-size: 14px;&quot;&gt;Servizio di fotogrammetria&lt;/b&gt;" style="ellipse;whiteSpace=wrap;html=1;aspect=fixed;fontSize=14;" parent="1" vertex="1">
          <mxGeometry x="594" y="1661" width="114" height="114" as="geometry" />
        </mxCell>
        <mxCell id="t_3xAI16Gsf8tu39YJwn-5" value="Invio fotografia" style="shape=hexagon;perimeter=hexagonPerimeter2;whiteSpace=wrap;html=1;" parent="1" vertex="1">
          <mxGeometry x="1805" y="652.5" width="120" height="55" as="geometry" />
        </mxCell>
        <mxCell id="t_3xAI16Gsf8tu39YJwn-6" value="Scattare fotografie" style="shape=hexagon;perimeter=hexagonPerimeter2;whiteSpace=wrap;html=1;" parent="1" vertex="1">
          <mxGeometry x="1635" y="652.5" width="120" height="55" as="geometry" />
        </mxCell>
        <mxCell id="t_3xAI16Gsf8tu39YJwn-7" value="Invio delle foto al direttore dei lavori" style="ellipse;whiteSpace=wrap;html=1;" parent="1" vertex="1">
          <mxGeometry x="1705" y="530" width="140" height="80" as="geometry" />
        </mxCell>
        <mxCell id="t_3xAI16Gsf8tu39YJwn-8" value="Immagine" style="rounded=0;whiteSpace=wrap;html=1;" parent="1" vertex="1">
          <mxGeometry x="1005" y="962.5" width="120" height="60" as="geometry" />
        </mxCell>
        <mxCell id="t_3xAI16Gsf8tu39YJwn-9" value="D" style="endArrow=none;html=1;entryX=0;entryY=0.5;entryDx=0;entryDy=0;exitX=1;exitY=0.5;exitDx=0;exitDy=0;horizontal=1;verticalAlign=middle;comic=0;fontStyle=1" parent="1" source="t_3xAI16Gsf8tu39YJwn-47" target="t_3xAI16Gsf8tu39YJwn-7" edge="1">
          <mxGeometry x="-0.3864" width="50" height="50" relative="1" as="geometry">
            <mxPoint x="1055" y="745" as="sourcePoint" />
            <mxPoint x="1105" y="695" as="targetPoint" />
            <mxPoint as="offset" />
          </mxGeometry>
        </mxCell>
        <mxCell id="t_3xAI16Gsf8tu39YJwn-10" value="Calcolo Hash della foto" style="shape=hexagon;perimeter=hexagonPerimeter2;whiteSpace=wrap;html=1;" parent="1" vertex="1">
          <mxGeometry x="1005" y="840" width="120" height="80" as="geometry" />
        </mxCell>
        <mxCell id="t_3xAI16Gsf8tu39YJwn-11" value="Aggiunta immagine nel giornale" style="ellipse;whiteSpace=wrap;html=1;" parent="1" vertex="1">
          <mxGeometry x="1005" y="597.5" width="120" height="80" as="geometry" />
        </mxCell>
        <mxCell id="t_3xAI16Gsf8tu39YJwn-12" value="Lettura giornale" style="ellipse;whiteSpace=wrap;html=1;" parent="1" vertex="1">
          <mxGeometry x="382" y="475" width="120" height="80" as="geometry" />
        </mxCell>
        <mxCell id="t_3xAI16Gsf8tu39YJwn-13" value="Scrivere nel giornale" style="ellipse;whiteSpace=wrap;html=1;" parent="1" vertex="1">
          <mxGeometry x="892" y="435" width="120" height="80" as="geometry" />
        </mxCell>
        <mxCell id="t_3xAI16Gsf8tu39YJwn-14" value="Lettura misure nel giornale dei lavori" style="ellipse;whiteSpace=wrap;html=1;" parent="1" vertex="1">
          <mxGeometry x="262" y="595" width="120" height="80" as="geometry" />
        </mxCell>
        <mxCell id="t_3xAI16Gsf8tu39YJwn-15" value="Leggere immagini nel giornale dei lavori" style="ellipse;whiteSpace=wrap;html=1;" parent="1" vertex="1">
          <mxGeometry x="492" y="585" width="120" height="80" as="geometry" />
        </mxCell>
        <mxCell id="t_3xAI16Gsf8tu39YJwn-16" value="Lettura misure" style="shape=hexagon;perimeter=hexagonPerimeter2;whiteSpace=wrap;html=1;" parent="1" vertex="1">
          <mxGeometry x="263" y="735" width="120" height="80" as="geometry" />
        </mxCell>
        <mxCell id="t_3xAI16Gsf8tu39YJwn-17" value="Visualizzazione foto" style="shape=hexagon;perimeter=hexagonPerimeter2;whiteSpace=wrap;html=1;" parent="1" vertex="1">
          <mxGeometry x="492" y="735" width="120" height="80" as="geometry" />
        </mxCell>
        <mxCell id="t_3xAI16Gsf8tu39YJwn-18" value="giornale" style="rounded=0;whiteSpace=wrap;html=1;" parent="1" vertex="1">
          <mxGeometry x="439" y="950" width="120" height="60" as="geometry" />
        </mxCell>
        <mxCell id="t_3xAI16Gsf8tu39YJwn-19" value="" style="endArrow=none;html=1;exitX=1;exitY=0.5;exitDx=0;exitDy=0;horizontal=0;entryX=0;entryY=0.5;entryDx=0;entryDy=0;fontStyle=1" parent="1" source="t_3xAI16Gsf8tu39YJwn-18" target="t_3xAI16Gsf8tu39YJwn-10" edge="1">
          <mxGeometry x="0.4629" y="88" width="50" height="50" relative="1" as="geometry">
            <mxPoint x="342" y="1045" as="sourcePoint" />
            <mxPoint x="722" y="715" as="targetPoint" />
            <mxPoint as="offset" />
          </mxGeometry>
        </mxCell>
        <mxCell id="t_3xAI16Gsf8tu39YJwn-20" value="Aggiunta misura nel giornale" style="ellipse;whiteSpace=wrap;html=1;" parent="1" vertex="1">
          <mxGeometry x="772" y="597.5" width="120" height="80" as="geometry" />
        </mxCell>
        <mxCell id="t_3xAI16Gsf8tu39YJwn-21" value="Conversione immagine in misura" style="shape=hexagon;perimeter=hexagonPerimeter2;whiteSpace=wrap;html=1;" parent="1" vertex="1">
          <mxGeometry x="935" y="1838" width="120" height="80" as="geometry" />
        </mxCell>
        <mxCell id="t_3xAI16Gsf8tu39YJwn-22" value="Immagine" style="rounded=0;whiteSpace=wrap;html=1;" parent="1" vertex="1">
          <mxGeometry x="935" y="1988" width="120" height="60" as="geometry" />
        </mxCell>
        <mxCell id="t_3xAI16Gsf8tu39YJwn-23" value="Misura" style="rounded=0;whiteSpace=wrap;html=1;" parent="1" vertex="1">
          <mxGeometry x="685" y="1240" width="120" height="60" as="geometry" />
        </mxCell>
        <mxCell id="t_3xAI16Gsf8tu39YJwn-24" value="" style="endArrow=none;html=1;entryX=0.5;entryY=1;entryDx=0;entryDy=0;horizontal=1;exitX=0;exitY=0.5;exitDx=0;exitDy=0;fontStyle=1" parent="1" source="t_3xAI16Gsf8tu39YJwn-68" target="t_3xAI16Gsf8tu39YJwn-23" edge="1">
          <mxGeometry x="0.5813" width="50" height="50" relative="1" as="geometry">
            <mxPoint x="1055" y="1705" as="sourcePoint" />
            <mxPoint x="1125" y="935" as="targetPoint" />
            <mxPoint as="offset" />
          </mxGeometry>
        </mxCell>
        <mxCell id="t_3xAI16Gsf8tu39YJwn-25" value="or" style="endArrow=classic;html=1;entryX=0;entryY=1;entryDx=0;entryDy=0;exitX=0.5;exitY=0;exitDx=0;exitDy=0;" parent="1" source="t_3xAI16Gsf8tu39YJwn-14" target="t_3xAI16Gsf8tu39YJwn-12" edge="1">
          <mxGeometry width="50" height="50" relative="1" as="geometry">
            <mxPoint x="872" y="835" as="sourcePoint" />
            <mxPoint x="922" y="785" as="targetPoint" />
          </mxGeometry>
        </mxCell>
        <mxCell id="t_3xAI16Gsf8tu39YJwn-26" value="or" style="endArrow=classic;html=1;entryX=1;entryY=1;entryDx=0;entryDy=0;exitX=0.5;exitY=0;exitDx=0;exitDy=0;" parent="1" source="t_3xAI16Gsf8tu39YJwn-15" target="t_3xAI16Gsf8tu39YJwn-12" edge="1">
          <mxGeometry width="50" height="50" relative="1" as="geometry">
            <mxPoint x="412" y="595" as="sourcePoint" />
            <mxPoint x="449.57359312880726" y="563.2842712474619" as="targetPoint" />
          </mxGeometry>
        </mxCell>
        <mxCell id="t_3xAI16Gsf8tu39YJwn-27" value="" style="endArrow=classic;html=1;entryX=0.5;entryY=1;entryDx=0;entryDy=0;exitX=0.5;exitY=0;exitDx=0;exitDy=0;" parent="1" source="t_3xAI16Gsf8tu39YJwn-17" target="t_3xAI16Gsf8tu39YJwn-15" edge="1">
          <mxGeometry width="50" height="50" relative="1" as="geometry">
            <mxPoint x="652" y="725" as="sourcePoint" />
            <mxPoint x="702" y="675" as="targetPoint" />
          </mxGeometry>
        </mxCell>
        <mxCell id="t_3xAI16Gsf8tu39YJwn-28" value="" style="endArrow=classic;html=1;entryX=0.5;entryY=1;entryDx=0;entryDy=0;exitX=0.5;exitY=0;exitDx=0;exitDy=0;" parent="1" source="t_3xAI16Gsf8tu39YJwn-16" target="t_3xAI16Gsf8tu39YJwn-14" edge="1">
          <mxGeometry width="50" height="50" relative="1" as="geometry">
            <mxPoint x="482" y="725" as="sourcePoint" />
            <mxPoint x="482" y="685" as="targetPoint" />
          </mxGeometry>
        </mxCell>
        <mxCell id="t_3xAI16Gsf8tu39YJwn-29" value="/" style="endArrow=none;html=1;exitX=0;exitY=0.5;exitDx=0;exitDy=0;horizontal=0;entryX=0.5;entryY=1;entryDx=0;entryDy=0;" parent="1" source="t_3xAI16Gsf8tu39YJwn-23" target="t_3xAI16Gsf8tu39YJwn-16" edge="1">
          <mxGeometry width="50" height="50" relative="1" as="geometry">
            <mxPoint x="323" y="920" as="sourcePoint" />
            <mxPoint x="622" y="685" as="targetPoint" />
            <Array as="points">
              <mxPoint x="323" y="1270" />
            </Array>
          </mxGeometry>
        </mxCell>
        <mxCell id="t_3xAI16Gsf8tu39YJwn-30" value="/" style="endArrow=none;html=1;horizontal=0;exitX=0.5;exitY=0;exitDx=0;exitDy=0;entryX=0.5;entryY=1;entryDx=0;entryDy=0;" parent="1" source="t_3xAI16Gsf8tu39YJwn-18" target="t_3xAI16Gsf8tu39YJwn-17" edge="1">
          <mxGeometry x="0.0769" width="50" height="50" relative="1" as="geometry">
            <mxPoint x="552" y="850" as="sourcePoint" />
            <mxPoint x="552" y="810" as="targetPoint" />
            <mxPoint as="offset" />
          </mxGeometry>
        </mxCell>
        <mxCell id="t_3xAI16Gsf8tu39YJwn-31" value="and" style="endArrow=classic;html=1;entryX=1;entryY=1;entryDx=0;entryDy=0;exitX=0.5;exitY=0;exitDx=0;exitDy=0;" parent="1" source="t_3xAI16Gsf8tu39YJwn-11" target="t_3xAI16Gsf8tu39YJwn-13" edge="1">
          <mxGeometry width="50" height="50" relative="1" as="geometry">
            <mxPoint x="822" y="560" as="sourcePoint" />
            <mxPoint x="849.573593128807" y="508.2842712474619" as="targetPoint" />
          </mxGeometry>
        </mxCell>
        <mxCell id="t_3xAI16Gsf8tu39YJwn-32" value="and" style="endArrow=classic;html=1;exitX=0.5;exitY=0;exitDx=0;exitDy=0;entryX=0;entryY=1;entryDx=0;entryDy=0;" parent="1" source="t_3xAI16Gsf8tu39YJwn-20" target="t_3xAI16Gsf8tu39YJwn-13" edge="1">
          <mxGeometry width="50" height="50" relative="1" as="geometry">
            <mxPoint x="972" y="560" as="sourcePoint" />
            <mxPoint x="934.426406871193" y="508.284271247462" as="targetPoint" />
          </mxGeometry>
        </mxCell>
        <mxCell id="t_3xAI16Gsf8tu39YJwn-33" value="" style="endArrow=classic;html=1;entryX=0.5;entryY=1;entryDx=0;entryDy=0;exitX=0.5;exitY=0;exitDx=0;exitDy=0;" parent="1" source="t_3xAI16Gsf8tu39YJwn-10" target="t_3xAI16Gsf8tu39YJwn-48" edge="1">
          <mxGeometry width="50" height="50" relative="1" as="geometry">
            <mxPoint x="855" y="777.5" as="sourcePoint" />
            <mxPoint x="855" y="737.5" as="targetPoint" />
          </mxGeometry>
        </mxCell>
        <mxCell id="t_3xAI16Gsf8tu39YJwn-34" value="/" style="endArrow=none;html=1;exitX=0.5;exitY=0;exitDx=0;exitDy=0;horizontal=0;entryX=0.5;entryY=1;entryDx=0;entryDy=0;" parent="1" source="t_3xAI16Gsf8tu39YJwn-8" target="t_3xAI16Gsf8tu39YJwn-10" edge="1">
          <mxGeometry width="50" height="50" relative="1" as="geometry">
            <mxPoint x="695" y="1017.5" as="sourcePoint" />
            <mxPoint x="1064.9999999999995" y="1007.5" as="targetPoint" />
          </mxGeometry>
        </mxCell>
        <mxCell id="t_3xAI16Gsf8tu39YJwn-35" value="/" style="endArrow=none;html=1;exitX=0.5;exitY=0;exitDx=0;exitDy=0;horizontal=0;entryX=0.5;entryY=1;entryDx=0;entryDy=0;" parent="1" source="t_3xAI16Gsf8tu39YJwn-23" target="t_3xAI16Gsf8tu39YJwn-57" edge="1">
          <mxGeometry width="50" height="50" relative="1" as="geometry">
            <mxPoint x="172" y="1252.5" as="sourcePoint" />
            <mxPoint x="832" y="1127.5" as="targetPoint" />
          </mxGeometry>
        </mxCell>
        <mxCell id="t_3xAI16Gsf8tu39YJwn-36" value="" style="endArrow=classic;html=1;entryX=1;entryY=1;entryDx=0;entryDy=0;exitX=0.5;exitY=0;exitDx=0;exitDy=0;" parent="1" source="t_3xAI16Gsf8tu39YJwn-5" target="t_3xAI16Gsf8tu39YJwn-7" edge="1">
          <mxGeometry width="50" height="50" relative="1" as="geometry">
            <mxPoint x="995" y="740" as="sourcePoint" />
            <mxPoint x="995" y="695" as="targetPoint" />
          </mxGeometry>
        </mxCell>
        <mxCell id="t_3xAI16Gsf8tu39YJwn-37" value="/" style="endArrow=none;html=1;entryX=0.5;entryY=0;entryDx=0;entryDy=0;exitX=0.5;exitY=1;exitDx=0;exitDy=0;horizontal=0;" parent="1" source="t_3xAI16Gsf8tu39YJwn-21" target="t_3xAI16Gsf8tu39YJwn-22" edge="1">
          <mxGeometry width="50" height="50" relative="1" as="geometry">
            <mxPoint x="758" y="2027" as="sourcePoint" />
            <mxPoint x="808" y="1977" as="targetPoint" />
          </mxGeometry>
        </mxCell>
        <mxCell id="t_3xAI16Gsf8tu39YJwn-38" value="Immagine" style="rounded=0;whiteSpace=wrap;html=1;" parent="1" vertex="1">
          <mxGeometry x="1725" y="800" width="120" height="60" as="geometry" />
        </mxCell>
        <mxCell id="t_3xAI16Gsf8tu39YJwn-42" value="Calcolare misura" style="ellipse;whiteSpace=wrap;html=1;" parent="1" vertex="1">
          <mxGeometry x="842" y="1678" width="120" height="80" as="geometry" />
        </mxCell>
        <mxCell id="t_3xAI16Gsf8tu39YJwn-43" value="" style="endArrow=classic;html=1;exitX=0.625;exitY=0;exitDx=0;exitDy=0;entryX=1;entryY=1;entryDx=0;entryDy=0;" parent="1" source="t_3xAI16Gsf8tu39YJwn-21" target="t_3xAI16Gsf8tu39YJwn-42" edge="1">
          <mxGeometry width="50" height="50" relative="1" as="geometry">
            <mxPoint x="622" y="1957" as="sourcePoint" />
            <mxPoint x="672" y="1907" as="targetPoint" />
          </mxGeometry>
        </mxCell>
        <mxCell id="t_3xAI16Gsf8tu39YJwn-44" value="/" style="endArrow=none;html=1;entryX=0.5;entryY=1;entryDx=0;entryDy=0;horizontal=0;" parent="1" source="t_3xAI16Gsf8tu39YJwn-38" target="t_3xAI16Gsf8tu39YJwn-5" edge="1">
          <mxGeometry width="50" height="50" relative="1" as="geometry">
            <mxPoint x="1845" y="815" as="sourcePoint" />
            <mxPoint x="1895" y="765" as="targetPoint" />
          </mxGeometry>
        </mxCell>
        <mxCell id="t_3xAI16Gsf8tu39YJwn-45" value="/" style="endArrow=none;html=1;entryX=0.5;entryY=1;entryDx=0;entryDy=0;exitX=0.25;exitY=0;exitDx=0;exitDy=0;horizontal=0;" parent="1" source="t_3xAI16Gsf8tu39YJwn-38" target="t_3xAI16Gsf8tu39YJwn-6" edge="1">
          <mxGeometry width="50" height="50" relative="1" as="geometry">
            <mxPoint x="1845" y="815" as="sourcePoint" />
            <mxPoint x="1895" y="765" as="targetPoint" />
          </mxGeometry>
        </mxCell>
        <mxCell id="t_3xAI16Gsf8tu39YJwn-46" value="" style="endArrow=classic;html=1;entryX=0;entryY=1;entryDx=0;entryDy=0;exitX=0.5;exitY=0;exitDx=0;exitDy=0;" parent="1" source="t_3xAI16Gsf8tu39YJwn-6" target="t_3xAI16Gsf8tu39YJwn-7" edge="1">
          <mxGeometry width="50" height="50" relative="1" as="geometry">
            <mxPoint x="1845" y="815" as="sourcePoint" />
            <mxPoint x="1895" y="765" as="targetPoint" />
          </mxGeometry>
        </mxCell>
        <mxCell id="t_3xAI16Gsf8tu39YJwn-47" value="Acquisizione foto" style="ellipse;whiteSpace=wrap;html=1;" parent="1" vertex="1">
          <mxGeometry x="1145" y="717.5" width="120" height="80" as="geometry" />
        </mxCell>
        <mxCell id="t_3xAI16Gsf8tu39YJwn-48" value="Scrivere foto" style="ellipse;whiteSpace=wrap;html=1;" parent="1" vertex="1">
          <mxGeometry x="1005" y="717.5" width="120" height="80" as="geometry" />
        </mxCell>
        <mxCell id="t_3xAI16Gsf8tu39YJwn-49" value="and" style="endArrow=classic;html=1;entryX=0.5;entryY=1;entryDx=0;entryDy=0;exitX=0.5;exitY=0;exitDx=0;exitDy=0;" parent="1" source="t_3xAI16Gsf8tu39YJwn-48" target="t_3xAI16Gsf8tu39YJwn-11" edge="1">
          <mxGeometry width="50" height="50" relative="1" as="geometry">
            <mxPoint x="1118" y="852.5" as="sourcePoint" />
            <mxPoint x="1168" y="802.5" as="targetPoint" />
          </mxGeometry>
        </mxCell>
        <mxCell id="t_3xAI16Gsf8tu39YJwn-50" value="and" style="endArrow=classic;html=1;entryX=1;entryY=1;entryDx=0;entryDy=0;exitX=0.308;exitY=0.038;exitDx=0;exitDy=0;exitPerimeter=0;" parent="1" source="t_3xAI16Gsf8tu39YJwn-47" target="t_3xAI16Gsf8tu39YJwn-11" edge="1">
          <mxGeometry width="50" height="50" relative="1" as="geometry">
            <mxPoint x="1118" y="852.5" as="sourcePoint" />
            <mxPoint x="1168" y="802.5" as="targetPoint" />
          </mxGeometry>
        </mxCell>
        <mxCell id="t_3xAI16Gsf8tu39YJwn-51" value="D" style="endArrow=none;html=1;exitX=0.75;exitY=1;exitDx=0;exitDy=0;entryX=0.5;entryY=1;entryDx=0;entryDy=0;fontStyle=1" parent="1" source="t_3xAI16Gsf8tu39YJwn-8" target="t_3xAI16Gsf8tu39YJwn-38" edge="1">
          <mxGeometry width="50" height="50" relative="1" as="geometry">
            <mxPoint x="1005" y="810" as="sourcePoint" />
            <mxPoint x="1055" y="760" as="targetPoint" />
            <Array as="points">
              <mxPoint x="1220" y="1110" />
              <mxPoint x="1785" y="1110" />
            </Array>
          </mxGeometry>
        </mxCell>
        <mxCell id="t_3xAI16Gsf8tu39YJwn-52" value="/" style="endArrow=none;html=1;entryX=0.625;entryY=1;entryDx=0;entryDy=0;exitX=0;exitY=0.5;exitDx=0;exitDy=0;" parent="1" source="t_3xAI16Gsf8tu39YJwn-8" target="t_3xAI16Gsf8tu39YJwn-17" edge="1">
          <mxGeometry width="50" height="50" relative="1" as="geometry">
            <mxPoint x="635" y="830" as="sourcePoint" />
            <mxPoint x="685" y="780" as="targetPoint" />
          </mxGeometry>
        </mxCell>
        <mxCell id="t_3xAI16Gsf8tu39YJwn-53" value="Acquisizione misura" style="ellipse;whiteSpace=wrap;html=1;" parent="1" vertex="1">
          <mxGeometry x="842" y="710" width="120" height="80" as="geometry" />
        </mxCell>
        <mxCell id="t_3xAI16Gsf8tu39YJwn-54" value="Scrivere misura" style="ellipse;whiteSpace=wrap;html=1;" parent="1" vertex="1">
          <mxGeometry x="685" y="710" width="120" height="80" as="geometry" />
        </mxCell>
        <mxCell id="t_3xAI16Gsf8tu39YJwn-55" value="and" style="endArrow=classic;html=1;entryX=1;entryY=1;entryDx=0;entryDy=0;exitX=0.5;exitY=0;exitDx=0;exitDy=0;" parent="1" source="t_3xAI16Gsf8tu39YJwn-53" target="t_3xAI16Gsf8tu39YJwn-20" edge="1">
          <mxGeometry width="50" height="50" relative="1" as="geometry">
            <mxPoint x="885" y="820" as="sourcePoint" />
            <mxPoint x="935" y="770" as="targetPoint" />
          </mxGeometry>
        </mxCell>
        <mxCell id="t_3xAI16Gsf8tu39YJwn-56" value="and" style="endArrow=classic;html=1;entryX=0;entryY=1;entryDx=0;entryDy=0;exitX=0.5;exitY=0;exitDx=0;exitDy=0;" parent="1" source="t_3xAI16Gsf8tu39YJwn-54" target="t_3xAI16Gsf8tu39YJwn-20" edge="1">
          <mxGeometry width="50" height="50" relative="1" as="geometry">
            <mxPoint x="885" y="820" as="sourcePoint" />
            <mxPoint x="935" y="770" as="targetPoint" />
          </mxGeometry>
        </mxCell>
        <mxCell id="t_3xAI16Gsf8tu39YJwn-57" value="Scrivere misura" style="shape=hexagon;perimeter=hexagonPerimeter2;whiteSpace=wrap;html=1;" parent="1" vertex="1">
          <mxGeometry x="685" y="1040" width="120" height="80" as="geometry" />
        </mxCell>
        <mxCell id="t_3xAI16Gsf8tu39YJwn-58" value="" style="endArrow=classic;html=1;exitX=0.5;exitY=0;exitDx=0;exitDy=0;entryX=0.5;entryY=1;entryDx=0;entryDy=0;" parent="1" source="t_3xAI16Gsf8tu39YJwn-57" target="t_3xAI16Gsf8tu39YJwn-54" edge="1">
          <mxGeometry width="50" height="50" relative="1" as="geometry">
            <mxPoint x="775" y="970" as="sourcePoint" />
            <mxPoint x="765" y="790" as="targetPoint" />
          </mxGeometry>
        </mxCell>
        <mxCell id="t_3xAI16Gsf8tu39YJwn-59" value="" style="endArrow=none;html=1;exitX=0.5;exitY=1;exitDx=0;exitDy=0;entryX=0;entryY=0.5;entryDx=0;entryDy=0;" parent="1" source="t_3xAI16Gsf8tu39YJwn-18" target="t_3xAI16Gsf8tu39YJwn-57" edge="1">
          <mxGeometry x="0.3836" y="-56" width="50" height="50" relative="1" as="geometry">
            <mxPoint x="775" y="1060" as="sourcePoint" />
            <mxPoint x="825" y="1010" as="targetPoint" />
            <mxPoint as="offset" />
            <Array as="points">
              <mxPoint x="500" y="1080" />
            </Array>
          </mxGeometry>
        </mxCell>
        <mxCell id="t_3xAI16Gsf8tu39YJwn-60" value="/" style="endArrow=none;html=1;entryX=1;entryY=0.75;entryDx=0;entryDy=0;" parent="1" source="t_3xAI16Gsf8tu39YJwn-18" target="t_3xAI16Gsf8tu39YJwn-16" edge="1">
          <mxGeometry width="50" height="50" relative="1" as="geometry">
            <mxPoint x="495" y="1060" as="sourcePoint" />
            <mxPoint x="545" y="1010" as="targetPoint" />
          </mxGeometry>
        </mxCell>
        <mxCell id="t_3xAI16Gsf8tu39YJwn-61" value="D" style="endArrow=none;html=1;entryX=0.5;entryY=1;entryDx=0;entryDy=0;exitX=1;exitY=0;exitDx=0;exitDy=0;horizontal=0;fontStyle=1" parent="1" source="t_3xAI16Gsf8tu39YJwn-22" target="t_3xAI16Gsf8tu39YJwn-8" edge="1">
          <mxGeometry x="0.1076" y="1" width="50" height="50" relative="1" as="geometry">
            <mxPoint x="845" y="1190" as="sourcePoint" />
            <mxPoint x="1075" y="1040" as="targetPoint" />
            <mxPoint as="offset" />
          </mxGeometry>
        </mxCell>
        <mxCell id="t_3xAI16Gsf8tu39YJwn-62" value="Invio misura" style="shape=hexagon;perimeter=hexagonPerimeter2;whiteSpace=wrap;html=1;" parent="1" vertex="1">
          <mxGeometry x="745" y="1838" width="120" height="80" as="geometry" />
        </mxCell>
        <mxCell id="t_3xAI16Gsf8tu39YJwn-63" value="/" style="endArrow=none;html=1;entryX=0.5;entryY=1;entryDx=0;entryDy=0;exitX=0.5;exitY=0;exitDx=0;exitDy=0;horizontal=0;" parent="1" source="t_3xAI16Gsf8tu39YJwn-64" target="t_3xAI16Gsf8tu39YJwn-62" edge="1">
          <mxGeometry width="50" height="50" relative="1" as="geometry">
            <mxPoint x="788" y="1978" as="sourcePoint" />
            <mxPoint x="728" y="1808" as="targetPoint" />
          </mxGeometry>
        </mxCell>
        <mxCell id="t_3xAI16Gsf8tu39YJwn-64" value="Misura" style="rounded=0;whiteSpace=wrap;html=1;" parent="1" vertex="1">
          <mxGeometry x="745" y="1988" width="120" height="60" as="geometry" />
        </mxCell>
        <mxCell id="t_3xAI16Gsf8tu39YJwn-65" value="" style="endArrow=classic;html=1;entryX=0;entryY=1;entryDx=0;entryDy=0;exitX=0.5;exitY=0;exitDx=0;exitDy=0;" parent="1" source="t_3xAI16Gsf8tu39YJwn-62" target="t_3xAI16Gsf8tu39YJwn-42" edge="1">
          <mxGeometry width="50" height="50" relative="1" as="geometry">
            <mxPoint x="678" y="1858" as="sourcePoint" />
            <mxPoint x="728" y="1808" as="targetPoint" />
          </mxGeometry>
        </mxCell>
        <mxCell id="t_3xAI16Gsf8tu39YJwn-66" value="" style="endArrow=none;html=1;entryX=0.5;entryY=1;entryDx=0;entryDy=0;exitX=0.5;exitY=0;exitDx=0;exitDy=0;horizontal=1;fontStyle=1;labelPosition=center;verticalLabelPosition=middle;align=center;verticalAlign=middle;anchorPointDirection=1;" parent="1" source="t_3xAI16Gsf8tu39YJwn-42" target="t_3xAI16Gsf8tu39YJwn-67" edge="1">
          <mxGeometry x="-0.6182" y="12" width="50" height="50" relative="1" as="geometry">
            <mxPoint x="902" y="1678" as="sourcePoint" />
            <mxPoint x="902" y="887" as="targetPoint" />
            <mxPoint as="offset" />
          </mxGeometry>
        </mxCell>
        <mxCell id="t_3xAI16Gsf8tu39YJwn-67" value="&lt;b&gt;D&lt;/b&gt;" style="text;html=1;align=center;verticalAlign=middle;resizable=1;points=[];autosize=1;rotation=-180;horizontal=0;direction=east;fillColor=#ffffff;overflow=visible;perimeter=none;container=0;backgroundOutline=0;resizeWidth=1;resizeHeight=1;" parent="1" vertex="1">
          <mxGeometry x="892" y="1506" width="22" height="6" as="geometry" />
        </mxCell>
        <mxCell id="t_3xAI16Gsf8tu39YJwn-68" value="&lt;b&gt;D&lt;/b&gt;" style="text;html=1;align=center;verticalAlign=middle;resizable=1;points=[];autosize=1;rotation=-180;horizontal=0;direction=east;fillColor=#ffffff;overflow=visible;perimeter=none;container=0;backgroundOutline=0;resizeWidth=1;resizeHeight=1;" parent="1" vertex="1">
          <mxGeometry x="734" y="1506" width="22" height="6" as="geometry" />
        </mxCell>
        <mxCell id="t_3xAI16Gsf8tu39YJwn-69" value="" style="endArrow=none;html=1;horizontal=1;exitX=0;exitY=0.5;exitDx=0;exitDy=0;fontStyle=1;entryX=0.514;entryY=-0.058;entryDx=0;entryDy=0;entryPerimeter=0;" parent="1" source="t_3xAI16Gsf8tu39YJwn-64" target="t_3xAI16Gsf8tu39YJwn-68" edge="1">
          <mxGeometry x="0.5813" width="50" height="50" relative="1" as="geometry">
            <mxPoint x="745" y="2018" as="sourcePoint" />
            <mxPoint x="745" y="1517" as="targetPoint" />
            <mxPoint as="offset" />
          </mxGeometry>
        </mxCell>
        <mxCell id="t_3xAI16Gsf8tu39YJwn-97" value="&lt;b&gt;&lt;font style=&quot;font-size: 14px&quot;&gt;Modulo ricezione foto&lt;/font&gt;&lt;/b&gt;" style="ellipse;whiteSpace=wrap;html=1;aspect=fixed;" parent="1" vertex="1">
          <mxGeometry x="1590" y="390" width="111" height="111" as="geometry" />
        </mxCell>
        <mxCell id="t_3xAI16Gsf8tu39YJwn-98" value="&lt;b&gt;&lt;font style=&quot;font-size: 14px&quot;&gt;Modulo blockchain&lt;/font&gt;&lt;/b&gt;" style="ellipse;whiteSpace=wrap;html=1;aspect=fixed;" parent="1" vertex="1">
          <mxGeometry x="590" y="350" width="95" height="95" as="geometry" />
        </mxCell>
        <mxCell id="t_3xAI16Gsf8tu39YJwn-99" value="Aggiungere foto nel DB" style="shape=hexagon;perimeter=hexagonPerimeter2;whiteSpace=wrap;html=1;" parent="1" vertex="1">
          <mxGeometry x="1190" y="832.5" width="120" height="80" as="geometry" />
        </mxCell>
        <mxCell id="t_3xAI16Gsf8tu39YJwn-104" value="\" style="endArrow=none;html=1;exitX=1;exitY=0;exitDx=0;exitDy=0;entryX=0.136;entryY=0.788;entryDx=0;entryDy=0;entryPerimeter=0;" parent="1" source="t_3xAI16Gsf8tu39YJwn-8" target="t_3xAI16Gsf8tu39YJwn-99" edge="1">
          <mxGeometry width="50" height="50" relative="1" as="geometry">
            <mxPoint x="1070" y="930" as="sourcePoint" />
            <mxPoint x="1120" y="880" as="targetPoint" />
          </mxGeometry>
        </mxCell>
        <mxCell id="t_3xAI16Gsf8tu39YJwn-105" value="" style="endArrow=block;html=1;endFill=1;exitX=0;exitY=0.25;exitDx=0;exitDy=0;" parent="1" source="t_3xAI16Gsf8tu39YJwn-99" target="t_3xAI16Gsf8tu39YJwn-48" edge="1">
          <mxGeometry width="50" height="50" relative="1" as="geometry">
            <mxPoint x="1150" y="840" as="sourcePoint" />
            <mxPoint x="1212" y="898.5" as="targetPoint" />
          </mxGeometry>
        </mxCell>
        <mxCell id="t_3xAI16Gsf8tu39YJwn-107" value="\" style="edgeStyle=orthogonalEdgeStyle;rounded=0;orthogonalLoop=1;jettySize=auto;html=1;entryX=0.5;entryY=1;entryDx=0;entryDy=0;endArrow=none;endFill=0;horizontal=0;" parent="1" source="t_3xAI16Gsf8tu39YJwn-106" target="t_3xAI16Gsf8tu39YJwn-99" edge="1">
          <mxGeometry relative="1" as="geometry" />
        </mxCell>
        <mxCell id="t_3xAI16Gsf8tu39YJwn-106" value="DB" style="rounded=0;whiteSpace=wrap;html=1;" parent="1" vertex="1">
          <mxGeometry x="1190" y="962.5" width="120" height="60" as="geometry" />
        </mxCell>
        <mxCell id="t_3xAI16Gsf8tu39YJwn-110" value="&lt;b&gt;&lt;font color=&quot;#ff0000&quot; style=&quot;font-size: 14px&quot;&gt;&lt;br&gt;Boundary Modulo ricezione foto&lt;/font&gt;&lt;/b&gt;" style="ellipse;whiteSpace=wrap;html=1;aspect=fixed;dashed=1;fillColor=none;align=center;verticalAlign=top;" parent="1" vertex="1">
          <mxGeometry x="1425" y="300" width="700" height="700" as="geometry" />
        </mxCell>
        <mxCell id="t_3xAI16Gsf8tu39YJwn-111" value="&lt;div&gt;&lt;span&gt;&lt;b&gt;&lt;font color=&quot;#ff0000&quot;&gt;Boundary servizio di fotogrammetria&lt;/font&gt;&lt;/b&gt;&lt;/span&gt;&lt;/div&gt;" style="ellipse;whiteSpace=wrap;html=1;aspect=fixed;dashed=1;fillColor=none;align=left;labelBackgroundColor=none;horizontal=1;verticalAlign=middle;" parent="1" vertex="1">
          <mxGeometry x="509" y="1537" width="620" height="620" as="geometry" />
        </mxCell>
        <mxCell id="X_rav3u2DecoJtggPr48-1" value="Clumsy&amp;nbsp;&lt;br&gt;Direttore&lt;br&gt;dei&lt;br&gt;lavori" style="ellipse;whiteSpace=wrap;html=1;aspect=fixed;fillColor=#FF0000;fontColor=#FFFFFF;" parent="1" vertex="1">
          <mxGeometry x="2130" y="1324" width="95" height="95" as="geometry" />
        </mxCell>
        <mxCell id="X_rav3u2DecoJtggPr48-5" value="Violation of&lt;br&gt;confidentiality" style="rounded=1;whiteSpace=wrap;html=1;fillColor=#000000;fontColor=#FFFFFF;arcSize=50;strokeColor=#000000;" parent="1" vertex="1">
          <mxGeometry x="1571" y="1339" width="120" height="60" as="geometry" />
        </mxCell>
        <mxCell id="X_rav3u2DecoJtggPr48-6" value="Violation of&lt;br&gt;confidentiality" style="rounded=1;whiteSpace=wrap;html=1;fillColor=#000000;fontColor=#FFFFFF;arcSize=50;strokeColor=#000000;" parent="1" vertex="1">
          <mxGeometry x="1570" y="1160" width="120" height="60" as="geometry" />
        </mxCell>
        <mxCell id="X_rav3u2DecoJtggPr48-7" value="Violation of&lt;br&gt;&amp;nbsp;integrity" style="rounded=1;whiteSpace=wrap;html=1;fillColor=#000000;fontColor=#FFFFFF;arcSize=50;strokeColor=#000000;" parent="1" vertex="1">
          <mxGeometry x="1573" y="1537" width="120" height="60" as="geometry" />
        </mxCell>
        <mxCell id="X_rav3u2DecoJtggPr48-10" value="" style="curved=1;endArrow=none;html=1;fontColor=#FFFFFF;entryX=0.5;entryY=1;entryDx=0;entryDy=0;endFill=0;strokeWidth=3;strokeColor=#7F00FF;exitX=0.036;exitY=0.227;exitDx=0;exitDy=0;exitPerimeter=0;" parent="1" source="X_rav3u2DecoJtggPr48-6" target="X_rav3u2DecoJtggPr48-22" edge="1">
          <mxGeometry width="50" height="50" relative="1" as="geometry">
            <mxPoint x="1580" y="1169" as="sourcePoint" />
            <mxPoint x="1180" y="1240" as="targetPoint" />
            <Array as="points">
              <mxPoint x="1350" y="1160" />
            </Array>
          </mxGeometry>
        </mxCell>
        <mxCell id="X_rav3u2DecoJtggPr48-11" value="" style="curved=1;endArrow=none;html=1;fontColor=#FFFFFF;endFill=0;strokeWidth=3;strokeColor=#7F00FF;entryX=0.996;entryY=0.637;entryDx=0;entryDy=0;entryPerimeter=0;exitX=0.031;exitY=0.756;exitDx=0;exitDy=0;exitPerimeter=0;" parent="1" source="X_rav3u2DecoJtggPr48-6" target="X_rav3u2DecoJtggPr48-18" edge="1">
          <mxGeometry width="50" height="50" relative="1" as="geometry">
            <mxPoint x="1370" y="1260" as="sourcePoint" />
            <mxPoint x="1190" y="1245" as="targetPoint" />
            <Array as="points">
              <mxPoint x="1340" y="1240" />
              <mxPoint x="930" y="1040" />
            </Array>
          </mxGeometry>
        </mxCell>
        <mxCell id="X_rav3u2DecoJtggPr48-13" value="" style="curved=1;endArrow=none;html=1;fontColor=#FFFFFF;entryX=0.75;entryY=1;entryDx=0;entryDy=0;endFill=0;strokeWidth=3;strokeColor=#7F00FF;exitX=0.043;exitY=0.249;exitDx=0;exitDy=0;exitPerimeter=0;" parent="1" source="X_rav3u2DecoJtggPr48-5" target="X_rav3u2DecoJtggPr48-20" edge="1">
          <mxGeometry width="50" height="50" relative="1" as="geometry">
            <mxPoint x="1370" y="1425" as="sourcePoint" />
            <mxPoint x="1190" y="1405" as="targetPoint" />
            <Array as="points">
              <mxPoint x="1320" y="1330" />
            </Array>
          </mxGeometry>
        </mxCell>
        <mxCell id="X_rav3u2DecoJtggPr48-14" value="" style="curved=1;endArrow=none;html=1;fontColor=#FFFFFF;endFill=0;entryX=1;entryY=0.5;entryDx=0;entryDy=0;strokeWidth=3;strokeColor=#7F00FF;exitX=0.052;exitY=0.271;exitDx=0;exitDy=0;exitPerimeter=0;" parent="1" source="X_rav3u2DecoJtggPr48-1" target="X_rav3u2DecoJtggPr48-6" edge="1">
          <mxGeometry width="50" height="50" relative="1" as="geometry">
            <mxPoint x="2200" y="1190" as="sourcePoint" />
            <mxPoint x="1495" y="1260" as="targetPoint" />
            <Array as="points">
              <mxPoint x="1860" y="1200" />
            </Array>
          </mxGeometry>
        </mxCell>
        <mxCell id="X_rav3u2DecoJtggPr48-18" value="" style="rounded=0;whiteSpace=wrap;html=1;strokeColor=#FF0000;fillColor=none;fontColor=#FFFFFF;strokeWidth=3;" parent="1" vertex="1">
          <mxGeometry x="428.5" y="945" width="141" height="70" as="geometry" />
        </mxCell>
        <mxCell id="X_rav3u2DecoJtggPr48-20" value="" style="rounded=0;whiteSpace=wrap;html=1;strokeColor=#FF0000;fillColor=none;fontColor=#FFFFFF;strokeWidth=3;" parent="1" vertex="1">
          <mxGeometry x="994.5" y="957.5" width="141" height="70" as="geometry" />
        </mxCell>
        <mxCell id="X_rav3u2DecoJtggPr48-21" value="" style="rounded=0;whiteSpace=wrap;html=1;strokeColor=#FF0000;fillColor=none;fontColor=#FFFFFF;strokeWidth=3;" parent="1" vertex="1">
          <mxGeometry x="674.5" y="1235" width="141" height="70" as="geometry" />
        </mxCell>
        <mxCell id="X_rav3u2DecoJtggPr48-22" value="" style="rounded=0;whiteSpace=wrap;html=1;strokeColor=#FF0000;fillColor=none;fontColor=#FFFFFF;strokeWidth=3;" parent="1" vertex="1">
          <mxGeometry x="1179.5" y="957.5" width="141" height="70" as="geometry" />
        </mxCell>
        <mxCell id="X_rav3u2DecoJtggPr48-23" value="" style="curved=1;endArrow=none;html=1;fontColor=#FFFFFF;entryX=1;entryY=0.25;entryDx=0;entryDy=0;endFill=0;strokeWidth=3;strokeColor=#7F00FF;exitX=0.043;exitY=0.809;exitDx=0;exitDy=0;exitPerimeter=0;" parent="1" source="X_rav3u2DecoJtggPr48-5" target="X_rav3u2DecoJtggPr48-21" edge="1">
          <mxGeometry width="50" height="50" relative="1" as="geometry">
            <mxPoint x="1570" y="1384" as="sourcePoint" />
            <mxPoint x="1189.9999999999995" y="1405" as="targetPoint" />
            <Array as="points">
              <mxPoint x="1380" y="1369" />
              <mxPoint x="1270" y="1360" />
            </Array>
          </mxGeometry>
        </mxCell>
        <mxCell id="X_rav3u2DecoJtggPr48-24" value="" style="curved=1;endArrow=none;html=1;fontColor=#FFFFFF;entryX=1;entryY=0.5;entryDx=0;entryDy=0;endFill=0;exitX=0;exitY=1;exitDx=0;exitDy=0;strokeWidth=3;strokeColor=#7F00FF;" parent="1" source="X_rav3u2DecoJtggPr48-1" target="X_rav3u2DecoJtggPr48-7" edge="1">
          <mxGeometry width="50" height="50" relative="1" as="geometry">
            <mxPoint x="1670" y="1410" as="sourcePoint" />
            <mxPoint x="1489.9999999999995" y="1500" as="targetPoint" />
            <Array as="points">
              <mxPoint x="1790" y="1530" />
            </Array>
          </mxGeometry>
        </mxCell>
        <mxCell id="X_rav3u2DecoJtggPr48-25" value="" style="curved=1;endArrow=none;html=1;fontColor=#FFFFFF;entryX=1;entryY=0.5;entryDx=0;entryDy=0;endFill=0;exitX=-0.008;exitY=0.576;exitDx=0;exitDy=0;strokeWidth=3;strokeColor=#7F00FF;exitPerimeter=0;" parent="1" source="X_rav3u2DecoJtggPr48-1" target="X_rav3u2DecoJtggPr48-5" edge="1">
          <mxGeometry width="50" height="50" relative="1" as="geometry">
            <mxPoint x="1670" y="1410" as="sourcePoint" />
            <mxPoint x="1489.9999999999995" y="1420" as="targetPoint" />
            <Array as="points" />
          </mxGeometry>
        </mxCell>
        <mxCell id="X_rav3u2DecoJtggPr48-27" value="" style="curved=1;endArrow=none;html=1;fontColor=#FFFFFF;endFill=0;strokeWidth=3;strokeColor=#7F00FF;entryX=0.5;entryY=1;entryDx=0;entryDy=0;exitX=0.037;exitY=0.287;exitDx=0;exitDy=0;exitPerimeter=0;" parent="1" source="X_rav3u2DecoJtggPr48-7" target="X_rav3u2DecoJtggPr48-20" edge="1">
          <mxGeometry width="50" height="50" relative="1" as="geometry">
            <mxPoint x="1560" y="1552" as="sourcePoint" />
            <mxPoint x="1070" y="1030" as="targetPoint" />
            <Array as="points">
              <mxPoint x="1290" y="1440" />
            </Array>
          </mxGeometry>
        </mxCell>
        <mxCell id="X_rav3u2DecoJtggPr48-28" value="" style="curved=1;endArrow=none;html=1;fontColor=#FFFFFF;entryX=1;entryY=0.75;entryDx=0;entryDy=0;endFill=0;strokeWidth=3;strokeColor=#7F00FF;exitX=0.042;exitY=0.793;exitDx=0;exitDy=0;exitPerimeter=0;" parent="1" source="X_rav3u2DecoJtggPr48-7" target="X_rav3u2DecoJtggPr48-21" edge="1">
          <mxGeometry width="50" height="50" relative="1" as="geometry">
            <mxPoint x="1369.9999999999995" y="1500" as="sourcePoint" />
            <mxPoint x="1189.9999999999995" y="1480" as="targetPoint" />
            <Array as="points">
              <mxPoint x="1260" y="1470" />
            </Array>
          </mxGeometry>
        </mxCell>
        <mxCell id="SzXEChga-AfkoWr6K1bM-1" value="Integrity &amp;amp; Confidentiability" style="rounded=1;whiteSpace=wrap;html=1;strokeColor=#4D4D4D;strokeWidth=4;fillColor=#0FB863;fontColor=#0008FF;" parent="1" vertex="1">
          <mxGeometry x="930" y="1000" width="120" height="60" as="geometry" />
        </mxCell>
        <mxCell id="SzXEChga-AfkoWr6K1bM-2" value="Integrity &amp;amp; Confidentiability" style="rounded=1;whiteSpace=wrap;html=1;strokeColor=#4D4D4D;strokeWidth=4;fillColor=#0FB863;fontColor=#0008FF;" parent="1" vertex="1">
          <mxGeometry x="610" y="1280" width="120" height="60" as="geometry" />
        </mxCell>
        <mxCell id="SzXEChga-AfkoWr6K1bM-3" value="Authentication, Confidentiability &amp;amp; Availability" style="rounded=1;whiteSpace=wrap;html=1;strokeColor=#4D4D4D;strokeWidth=4;fillColor=#0FB863;fontColor=#0008FF;" parent="1" vertex="1">
          <mxGeometry x="372" y="1000" width="120" height="60" as="geometry" />
        </mxCell>
        <mxCell id="SzXEChga-AfkoWr6K1bM-4" value="Authentication, Confidentiability &amp;amp; Availability" style="rounded=1;whiteSpace=wrap;html=1;strokeColor=#4D4D4D;strokeWidth=4;fillColor=#0FB863;fontColor=#0008FF;" parent="1" vertex="1">
          <mxGeometry x="1270" y="1000" width="120" height="60" as="geometry" />
        </mxCell>
      </root>
    </mxGraphModel>
  </diagram>
</mxfile>
